Joints
version=1
nRows=125
nColumns=4
inDegrees=yes
endheader
time	shoulder_elev	elbow_flexion	elv_angle
0.0    5.0 15.0 89
0.020161290322580645    5.0 15.0 89
0.04032258064516129    5.013788507183509 15.0 89
0.06048387096774194    5.080456896950996 15.0 89
0.08064516129032258    5.247307409223666 15.0 89
0.10080645161290322    5.555178921180453 15.0 89
0.12096774193548387    6.038734207824346 15.0 89
0.1411290322580645    6.726747202548708 15.0 89
0.16129032258064516    7.642390257703605 15.0 89
0.1814516129032258    8.80352140516212 15.0 89
0.20161290322580644    10.222971616886689 15.0 89
0.2217741935483871    11.908832065495407 15.0 89
0.24193548387096775    13.864741384828372 15.0 89
0.2620967741935484    16.09017293051399 15.0 89
0.282258064516129    18.580722040535306 15.0 89
0.3024193548387097    21.328393295796328 15.0 89
0.3225806451612903    24.321887780688346 15.0 89
0.34274193548387094    27.546890343656266 15.0 89
0.3629032258064516    30.986356857764903 15.0 89
0.38306451612903225    34.620801481265346 15.0 89
0.4032258064516129    38.428583918161266 15.0 89
0.42338709677419356    42.38619667877521 15.0 89
0.4435483870967742    46.46855234031496 15.0 89
0.4637096774193548    50.64927080743984 15.0 89
0.4838709677419355    54.90096657282706 15.0 89
0.5040322580645161    59.19553597773799 15.0 89
0.5241935483870968    63.50444447258456 15.0 89
0.5443548387096774    67.7990138774955 15.0 89
0.564516129032258    72.05070964288271 15.0 89
0.5846774193548387    76.2314281100076 15.0 89
0.6048387096774194    80.31378377154735 15.0 89
0.625    84.27139653216129 15.0 89
0.6451612903225806    88.07917896905721 15.0 89
0.6653225806451613    91.71362359255764 15.0 89
0.6854838709677419    95.15309010666627 15.0 89
0.7056451612903225    98.37809266963419 15.0 89
0.7258064516129032    101.37158715452621 15.0 89
0.7459677419354839    104.11925840978724 15.0 89
0.7661290322580645    106.60980751980856 15.0 89
0.7862903225806451    108.83523906549418 15.0 89
0.8064516129032258    110.79114838482714 15.0 89
0.8266129032258064    112.47700883343586 15.0 89
0.8467741935483871    113.89645904516043 15.0 89
0.8669354838709677    115.05759019261893 15.0 89
0.8870967741935484    115.97323324777382 15.0 89
0.907258064516129    116.66124624249818 15.0 89
0.9274193548387096    117.14480152914206 15.0 89
0.9475806451612903    117.45267304109885 15.0 89
0.967741935483871    117.61952355337152 15.0 89
0.9879032258064516    117.686191943139 15.0 89
1.0080645161290323    117.6999804503225 15.0 89
1.0282258064516128    117.6999804503225 15.0 89
1.0483870967741935    117.6999804503225 15.0 89
1.0685483870967742    117.6999804503225 15.0 89
1.0887096774193548    117.6999804503225 15.0 89
1.1088709677419355    117.6999804503225 15.0 89
1.129032258064516    117.6999804503225 15.0 89
1.1491935483870968    117.6999804503225 15.0 89
1.1693548387096775    117.6999804503225 15.0 89
1.189516129032258    117.6999804503225 15.0 89
1.2096774193548387    117.6999804503225 15.0 89
1.2298387096774193    117.6999804503225 15.0 89
1.25    117.6999804503225 15.0 89
1.2701612903225805    117.6999804503225 15.0 89
1.2903225806451613    117.6999804503225 15.0 89
1.310483870967742    117.6999804503225 15.0 89
1.3306451612903225    117.6999804503225 15.0 89
1.3508064516129032    117.6999804503225 15.0 89
1.3709677419354838    117.6999804503225 15.0 89
1.3911290322580645    117.6999804503225 15.0 89
1.411290322580645    117.6999804503225 15.0 89
1.4314516129032258    117.6999804503225 15.0 89
1.4516129032258065    117.6999804503225 15.0 89
1.471774193548387    117.6999804503225 15.0 89
1.4919354838709677    117.6999804503225 15.0 89
1.5120967741935483    117.6999804503225 15.0 89
1.532258064516129    117.6999804503225 15.0 89
1.5524193548387097    117.686191943139 15.0 89
1.5725806451612903    117.61952355337151 15.0 89
1.592741935483871    117.45267304109883 15.0 89
1.6129032258064515    117.14480152914204 15.0 89
1.6330645161290323    116.66124624249815 15.0 89
1.6532258064516128    115.97323324777379 15.0 89
1.6733870967741935    115.05759019261889 15.0 89
1.6935483870967742    113.89645904516037 15.0 89
1.7137096774193548    112.4770088334358 15.0 89
1.7338709677419355    110.79114838482708 15.0 89
1.754032258064516    108.83523906549412 15.0 89
1.7741935483870968    106.6098075198085 15.0 89
1.7943548387096773    104.1192584097872 15.0 89
1.814516129032258    101.37158715452617 15.0 89
1.8346774193548387    98.37809266963414 15.0 89
1.8548387096774193    95.15309010666623 15.0 89
1.875    91.71362359255758 15.0 89
1.8951612903225805    88.07917896905714 15.0 89
1.9153225806451613    84.27139653216122 15.0 89
1.935483870967742    80.31378377154728 15.0 89
1.9556451612903225    76.23142811000756 15.0 89
1.9758064516129032    72.05070964288268 15.0 89
1.9959677419354838    67.79901387749547 15.0 89
2.0161290322580645    63.504444472584524 15.0 89
2.036290322580645    59.195535977737954 15.0 89
2.0564516129032255    54.900966572827016 15.0 89
2.0766129032258065    50.6492708074398 15.0 89
2.096774193548387    46.468552340314915 15.0 89
2.1169354838709675    42.38619667877515 15.0 89
2.1370967741935485    38.42858391816121 15.0 89
2.157258064516129    34.620801481265296 15.0 89
2.1774193548387095    30.986356857764854 15.0 89
2.1975806451612905    27.54689034365622 15.0 89
2.217741935483871    24.321887780688307 15.0 89
2.2379032258064515    21.328393295796285 15.0 89
2.258064516129032    18.580722040535264 15.0 89
2.278225806451613    16.090172930513955 15.0 89
2.2983870967741935    13.86474138482833 15.0 89
2.318548387096774    11.908832065495364 15.0 89
2.338709677419355    10.222971616886646 15.0 89
2.3588709677419355    8.803521405162083 15.0 89
2.379032258064516    7.642390257703577 15.0 89
2.3991935483870965    6.726747202548683 15.0 89
2.4193548387096775    6.038734207824325 15.0 89
2.439516129032258    5.555178921180442 15.0 89
2.4596774193548385    5.247307409223657 15.0 89
2.4798387096774195    5.080456896950988 15.0 89
2.5    5.013788507183506 15.0 89
